<svg width="21" height="21" viewBox="0 0 21 21" fill="none" xmlns="http://www.w3.org/2000/svg">
<path d="M13.1245 9.18745C13.1245 9.0134 13.0554 8.84648 12.9323 8.72341C12.8093 8.60034 12.6423 8.5312 12.4683 8.5312H8.5308C8.35675 8.5312 8.18983 8.60034 8.06676 8.72341C7.94369 8.84648 7.87455 9.0134 7.87455 9.18745C7.87455 9.3615 7.94369 9.52841 8.06676 9.65149C8.18983 9.77456 8.35675 9.8437 8.5308 9.8437H12.4683C12.6423 9.8437 12.8093 9.77456 12.9323 9.65149C13.0554 9.52841 13.1245 9.3615 13.1245 9.18745ZM12.4683 11.1562C12.6423 11.1562 12.8093 11.2253 12.9323 11.3484C13.0554 11.4715 13.1245 11.6384 13.1245 11.8124C13.1245 11.9865 13.0554 12.1534 12.9323 12.2765C12.8093 12.3996 12.6423 12.4687 12.4683 12.4687H9.8433C9.66925 12.4687 9.50233 12.3996 9.37926 12.2765C9.25619 12.1534 9.18705 11.9865 9.18705 11.8124C9.18705 11.6384 9.25619 11.4715 9.37926 11.3484C9.50233 11.2253 9.66925 11.1562 9.8433 11.1562H12.4683ZM18.3745 10.4999C18.3742 8.7662 17.8017 7.08101 16.7459 5.70581C15.6901 4.33062 14.21 3.34228 12.5352 2.89411C10.8604 2.44595 9.08444 2.56302 7.48294 3.22715C5.88143 3.89128 4.54386 5.06536 3.6777 6.56725C2.81155 8.06914 2.46524 9.81489 2.69249 11.5337C2.91974 13.2525 3.70785 14.8482 4.93457 16.0734C6.16128 17.2986 7.75803 18.0847 9.4771 18.3098C11.1962 18.5349 12.9415 18.1864 14.4423 17.3184L17.5109 18.3421C17.6243 18.38 17.7458 18.3862 17.8625 18.36C17.9791 18.3338 18.0863 18.2763 18.1727 18.1936C18.259 18.1109 18.3211 18.0063 18.3523 17.8909C18.3835 17.7755 18.3825 17.6538 18.3496 17.5389L17.4151 14.2694C18.0451 13.1129 18.375 11.8169 18.3745 10.4999ZM10.4995 3.93745C11.6582 3.93737 12.7963 4.24409 13.798 4.82641C14.7998 5.40873 15.6295 6.2459 16.2028 7.25282C16.7761 8.25974 17.0726 9.4005 17.0622 10.5592C17.0517 11.7178 16.7347 12.853 16.1433 13.8494C16.0978 13.9264 16.0685 14.0119 16.0572 14.1006C16.0459 14.1893 16.0529 14.2793 16.0777 14.3653L16.7457 16.7015L14.5696 15.977C14.4772 15.9462 14.3791 15.9363 14.2824 15.9481C14.1856 15.9599 14.0928 15.9931 14.0105 16.0453C13.1504 16.5895 12.1756 16.9263 11.163 17.029C10.1504 17.1316 9.12776 16.9974 8.17598 16.6367C7.2242 16.2761 6.36935 15.6991 5.67899 14.9512C4.98862 14.2033 4.48168 13.3051 4.19822 12.3276C3.91476 11.3501 3.86256 10.32 4.04575 9.31883C4.22893 8.31765 4.64248 7.3728 5.2537 6.55896C5.86492 5.74513 6.65706 5.08462 7.5675 4.62964C8.47795 4.17466 9.48175 3.93768 10.4995 3.93745Z" fill="#0038B0"/>
</svg>
