<svg width="71" height="79" viewBox="0 0 71 79" fill="none" xmlns="http://www.w3.org/2000/svg">
<path d="M58.0142 10.3212C57.7042 10.3212 57.3942 10.2438 57.123 10.0888C49.683 6.2525 43.2505 4.625 35.5392 4.625C27.8667 4.625 20.5817 6.44625 13.9555 10.0888C13.0255 10.5925 11.863 10.2438 11.3205 9.31375C11.0788 8.86055 11.0246 8.33062 11.1695 7.83788C11.3145 7.34514 11.6469 6.92894 12.0955 6.67875C19.303 2.765 27.208 0.75 35.5392 0.75C43.793 0.75 51.0005 2.57125 58.9055 6.64C59.8742 7.14375 60.223 8.30625 59.7192 9.23625C59.566 9.55928 59.3247 9.83249 59.0231 10.0244C58.7214 10.2164 58.3717 10.3193 58.0142 10.3212ZM2.56298 30.665C2.20579 30.6683 1.85465 30.5727 1.54853 30.3886C1.2424 30.2045 0.993244 29.9392 0.828698 29.6222C0.664152 29.3051 0.590647 28.9487 0.616335 28.5924C0.642024 28.2361 0.765902 27.8939 0.974229 27.6038C4.81048 22.1788 9.69298 17.9163 15.5055 14.9325C27.673 8.655 43.2505 8.61625 55.4567 14.8938C61.2692 17.8775 66.1517 22.1013 69.988 27.4875C70.1367 27.6957 70.2426 27.9314 70.2997 28.1808C70.3568 28.4302 70.364 28.6885 70.3208 28.9407C70.2775 29.1928 70.1848 29.434 70.0478 29.6501C69.9109 29.8663 69.7325 30.0532 69.523 30.2C68.6317 30.82 67.4305 30.6263 66.8105 29.735C63.4156 24.9327 58.9085 21.0238 53.6742 18.3425C42.553 12.6463 28.3317 12.6463 17.2492 18.3813C11.9792 21.0938 7.56173 24.9688 4.07423 29.8513C3.76423 30.3938 3.18298 30.665 2.56298 30.665ZM26.7817 77.4363C26.5276 77.4394 26.2757 77.3892 26.0421 77.2891C25.8085 77.189 25.5985 77.0412 25.4255 76.855C22.0542 73.4838 20.233 71.3138 17.6367 66.625C14.963 61.8588 13.568 56.0463 13.568 49.8075C13.568 38.2988 23.4105 28.9213 35.5005 28.9213C47.5905 28.9213 57.433 38.2988 57.433 49.8075C57.433 50.8925 56.5805 51.745 55.4955 51.745C54.4105 51.745 53.558 50.8925 53.558 49.8075C53.558 40.43 45.4592 32.7963 35.5005 32.7963C25.5417 32.7963 17.443 40.43 17.443 49.8075C17.443 55.3875 18.683 60.5413 21.0467 64.7263C23.5267 69.1825 25.2317 71.0813 28.2155 74.1038C28.9517 74.8788 28.9517 76.08 28.2155 76.855C27.7892 77.2425 27.2855 77.4363 26.7817 77.4363ZM54.5655 70.2675C49.9542 70.2675 45.8855 69.105 42.553 66.8188C36.7792 62.905 33.3305 56.55 33.3305 49.8075C33.3305 48.7225 34.183 47.87 35.268 47.87C36.353 47.87 37.2055 48.7225 37.2055 49.8075C37.2055 55.2713 39.9955 60.425 44.723 63.6025C47.4742 65.4625 50.6905 66.3538 54.5655 66.3538C55.4955 66.3538 57.0455 66.2375 58.5955 65.9663C59.6417 65.7725 60.6492 66.47 60.843 67.555C61.0367 68.6013 60.3392 69.6088 59.2542 69.8025C57.0455 70.2288 55.108 70.2675 54.5655 70.2675ZM46.7767 78.25C46.6217 78.25 46.428 78.2113 46.273 78.1725C40.1117 76.4675 36.0817 74.1813 31.858 70.035C29.182 67.3918 27.06 64.2414 25.6161 60.7682C24.1723 57.2951 23.4356 53.5688 23.4492 49.8075C23.4492 43.53 28.7967 38.415 35.3842 38.415C41.9717 38.415 47.3192 43.53 47.3192 49.8075C47.3192 53.9538 50.923 57.325 55.3792 57.325C59.8355 57.325 63.4392 53.9538 63.4392 49.8075C63.4392 35.1988 50.8455 23.3413 35.3455 23.3413C24.3405 23.3413 14.2655 29.4638 9.73173 38.9575C8.22048 42.0963 7.44548 45.7775 7.44548 49.8075C7.44548 52.83 7.71673 57.5963 10.0417 63.7963C10.4292 64.8038 9.92548 65.9275 8.91798 66.2763C7.91048 66.6638 6.78673 66.1213 6.43798 65.1525C4.56741 60.2528 3.60872 55.0522 3.60923 49.8075C3.60923 45.1575 4.50048 40.9338 6.24423 37.2525C11.398 26.4413 22.8292 19.4275 35.3455 19.4275C52.9767 19.4275 67.3142 33.0288 67.3142 49.7688C67.3142 56.0463 61.9667 61.1613 55.3792 61.1613C48.7917 61.1613 43.4442 56.0463 43.4442 49.7688C43.4442 45.6225 39.8405 42.2513 35.3842 42.2513C30.928 42.2513 27.3242 45.6225 27.3242 49.7688C27.3242 56.395 29.8817 62.595 34.5705 67.245C38.2517 70.8875 41.778 72.9025 47.2417 74.4138C48.288 74.685 48.8692 75.77 48.598 76.7775C48.4042 77.6688 47.5905 78.25 46.7767 78.25Z" fill="#FFD43E"/>
</svg>
