<svg width="31" height="31" viewBox="0 0 31 31" fill="none" xmlns="http://www.w3.org/2000/svg">
<g clip-path="url(#clip0_1438_156)">
<path d="M30.3382 15.3147C30.3389 17.9193 29.653 20.4625 28.3488 22.7041L30.4629 30.363L22.5637 28.3079C20.3789 29.4881 17.931 30.1064 15.4434 30.1066H15.4369C7.22488 30.1066 0.540142 23.4761 0.536629 15.3264C0.535055 11.3772 2.0836 7.66371 4.89709 4.86987C7.7101 2.07626 11.4513 0.536959 15.4375 0.535156C23.6504 0.535156 30.3347 7.16531 30.338 15.3147" fill="url(#paint0_linear_1438_156)"/>
<path d="M30.8704 15.3097C30.8713 18.008 30.1608 20.6422 28.8101 22.964L31 30.8975L22.8176 28.7687C20.5631 29.9884 18.0247 30.6315 15.4418 30.6324H15.4351C6.9285 30.6324 0.0036335 23.7634 0 15.3219C-0.0014534 11.2309 1.6028 7.38389 4.5168 4.48995C7.43116 1.59638 11.3062 0.00168217 15.4351 0C23.9431 0 30.867 6.86806 30.8704 15.3097ZM25.9975 22.5642L26.303 22.0829C27.5873 20.0566 28.2652 17.7151 28.2643 15.3106C28.2616 8.29418 22.5067 2.58574 15.4302 2.58574C12.0033 2.58718 8.78269 3.91273 6.36033 6.31775C3.93809 8.72302 2.60521 11.9203 2.60606 15.321C2.60921 22.3374 8.36419 28.0466 15.4351 28.0466H15.4402C17.7425 28.0454 20.0006 27.4319 21.9698 26.2725L22.4384 25.9967L27.294 27.2599L25.9975 22.5642Z" fill="url(#paint1_linear_1438_156)"/>
<path d="M19.2921 8.90938C19.5811 8.27219 19.8851 8.25934 20.1599 8.24816C20.3849 8.23855 20.6421 8.23927 20.8991 8.23927C21.1563 8.23927 21.5742 8.33527 21.9274 8.71797C22.281 9.10102 23.2773 10.0267 23.2773 11.9094C23.2773 13.7921 21.8953 15.6117 21.7026 15.8673C21.5097 16.1224 19.0346 20.1096 15.1145 21.6435C11.8566 22.9183 11.1936 22.6647 10.4866 22.6008C9.77939 22.5371 8.20469 21.6754 7.88342 20.7818C7.56192 19.8883 7.56192 19.1224 7.65831 18.9624C7.7547 18.8029 8.0119 18.7072 8.39759 18.5159C8.78327 18.3246 10.6795 17.3987 11.033 17.271C11.3865 17.1434 11.6436 17.0797 11.9008 17.4629C12.158 17.8454 12.8966 18.7072 13.1217 18.9624C13.3466 19.2182 13.5717 19.25 13.9572 19.0586C14.3432 18.8666 15.5852 18.463 17.0588 17.1595C18.2053 16.1451 18.9794 14.8925 19.2044 14.5093C19.4293 14.1267 19.2285 13.9194 19.0351 13.7287C18.8618 13.5572 18.6493 13.2818 18.4562 13.0584C18.2639 12.835 18.1998 12.6755 18.0712 12.4203C17.9424 12.1649 18.0069 11.9414 18.1031 11.75C18.1998 11.5586 18.9492 9.66599 19.2921 8.90938Z" fill="white"/>
</g>
<defs>
<linearGradient id="paint0_linear_1438_156" x1="-1465.85" y1="2983.32" x2="-1465.85" y2="0.535156" gradientUnits="userSpaceOnUse">
<stop stop-color="#1FAF38"/>
<stop offset="1" stop-color="#60D669"/>
</linearGradient>
<linearGradient id="paint1_linear_1438_156" x1="-1519" y1="3089.75" x2="-1519" y2="0" gradientUnits="userSpaceOnUse">
<stop stop-color="#F9F9F9"/>
<stop offset="1" stop-color="white"/>
</linearGradient>
<clipPath id="clip0_1438_156">
<rect width="31" height="31" fill="white" transform="matrix(-1 0 0 1 31 0)"/>
</clipPath>
</defs>
</svg>
