<svg width="26" height="17" viewBox="0 0 26 17" fill="none" xmlns="http://www.w3.org/2000/svg">
<path d="M7.035 8.9265C7.54138 8.53366 8.18006 8.3039 8.84924 8.27385C9.51842 8.2438 10.1796 8.41519 10.7273 8.7607C11.2751 9.1062 11.6779 9.60594 11.8715 10.1802C12.0651 10.7545 12.0385 11.3704 11.7958 11.9295C11.5531 12.4887 11.1083 12.959 10.5323 13.2655C9.95634 13.572 9.28235 13.6971 8.61778 13.6207C7.9532 13.5444 7.33629 13.2711 6.86539 12.8443C6.39449 12.4176 6.0967 11.862 6.0195 11.266C5.7525 10.0506 5.7555 8.60216 6.3675 7.30412C7.014 5.93424 8.31825 4.77924 10.545 4.25748C10.6167 4.24001 10.6916 4.23545 10.7653 4.24404C10.8389 4.25263 10.91 4.27422 10.9743 4.30754C11.0387 4.34086 11.095 4.38527 11.14 4.43819C11.185 4.49111 11.2179 4.5515 11.2368 4.61587C11.2556 4.68023 11.26 4.7473 11.2497 4.8132C11.2394 4.87909 11.2146 4.94251 11.1768 4.99978C11.139 5.05706 11.0889 5.10705 11.0293 5.14688C10.9698 5.18671 10.9021 5.21559 10.83 5.23184C8.93175 5.67705 7.911 6.62187 7.404 7.69629C7.22094 8.08999 7.09686 8.50365 7.035 8.9265Z" fill="white"/>
<path d="M14.535 8.9265C15.0414 8.53366 15.6801 8.3039 16.3493 8.27385C17.0185 8.2438 17.6796 8.41519 18.2273 8.7607C18.7751 9.1062 19.1779 9.60594 19.3715 10.1802C19.5652 10.7545 19.5385 11.3704 19.2958 11.9295C19.0531 12.4887 18.6083 12.959 18.0323 13.2655C17.4564 13.572 16.7824 13.6971 16.1178 13.6207C15.4532 13.5444 14.8363 13.2711 14.3654 12.8443C13.8945 12.4176 13.5967 11.862 13.5195 11.266C13.2525 10.0506 13.2555 8.60216 13.8675 7.30412C14.514 5.93424 15.8183 4.77924 18.045 4.25748C18.1167 4.24002 18.1916 4.23545 18.2653 4.24404C18.339 4.25264 18.41 4.27422 18.4744 4.30754C18.5387 4.34086 18.595 4.38527 18.64 4.43819C18.6851 4.49111 18.718 4.5515 18.7368 4.61586C18.7556 4.68023 18.76 4.7473 18.7497 4.8132C18.7394 4.87909 18.7147 4.94251 18.6768 4.99978C18.639 5.05706 18.5889 5.10705 18.5294 5.14688C18.4698 5.18671 18.4021 5.21559 18.33 5.23184C16.4318 5.67705 15.411 6.62187 14.904 7.69629C14.721 8.08999 14.5969 8.50365 14.535 8.9265Z" fill="white"/>
</svg>
