<svg width="78" height="54" viewBox="0 0 78 54" fill="none" xmlns="http://www.w3.org/2000/svg">
<path d="M21.1055 27.0518C22.6246 28.3681 24.5407 29.1379 26.5482 29.2386C28.5558 29.3393 30.5392 28.765 32.1824 27.6073C33.8257 26.4497 35.034 24.7752 35.615 22.851C36.1959 20.9267 36.1159 18.8633 35.3878 16.9897C34.6597 15.1162 33.3253 13.5403 31.5974 12.5133C29.8695 11.4863 27.8475 11.0673 25.8538 11.323C23.8601 11.5788 22.0094 12.4947 20.5967 13.9246C19.184 15.3545 18.2906 17.2161 18.059 19.2128C17.258 23.2853 17.267 28.1386 19.103 32.4878C21.0425 37.0778 24.9552 40.9478 31.6355 42.6961C31.8506 42.7546 32.0752 42.7699 32.2963 42.7411C32.5173 42.7123 32.7305 42.64 32.9235 42.5283C33.1164 42.4167 33.2854 42.2679 33.4205 42.0905C33.5556 41.9132 33.6543 41.7109 33.7108 41.4952C33.7673 41.2796 33.7804 41.0548 33.7496 40.834C33.7187 40.6132 33.6444 40.4008 33.5309 40.2089C33.4175 40.0169 33.2671 39.8494 33.0885 39.716C32.9099 39.5825 32.7067 39.4858 32.4905 39.4313C26.7957 37.9396 23.7335 34.7738 22.2125 31.1738C21.6633 29.8546 21.2911 28.4686 21.1055 27.0518Z" fill="#FFD43E"/>
<path d="M45.1055 27.0518C46.6246 28.3681 48.5407 29.1379 50.5482 29.2386C52.5558 29.3393 54.5392 28.765 56.1824 27.6073C57.8257 26.4497 59.034 24.7752 59.615 22.851C60.1959 20.9267 60.1159 18.8633 59.3878 16.9897C58.6597 15.1162 57.3253 13.5403 55.5974 12.5133C53.8695 11.4863 51.8475 11.0673 49.8538 11.323C47.8601 11.5788 46.0094 12.4947 44.5967 13.9246C43.184 15.3545 42.2906 17.2161 42.059 19.2128C41.258 23.2853 41.267 28.1386 43.103 32.4878C45.0425 37.0778 48.9552 40.9478 55.6355 42.6961C55.8506 42.7546 56.0752 42.7699 56.2963 42.7411C56.5173 42.7123 56.7305 42.64 56.9235 42.5283C57.1164 42.4167 57.2854 42.2679 57.4205 42.0905C57.5556 41.9132 57.6543 41.7109 57.7108 41.4952C57.7673 41.2796 57.7804 41.0548 57.7496 40.834C57.7187 40.6132 57.6444 40.4008 57.5309 40.2089C57.4175 40.0169 57.2671 39.8494 57.0885 39.716C56.9099 39.5825 56.7067 39.4858 56.4905 39.4313C50.7957 37.9396 47.7335 34.7738 46.2125 31.1738C45.6633 29.8546 45.2911 28.4686 45.1055 27.0518Z" fill="#FFD43E"/>
</svg>
