<svg width="56" height="66" viewBox="0 0 56 66" fill="none" xmlns="http://www.w3.org/2000/svg">
<path d="M0.133301 10.2002C0.133301 4.62689 4.6933 0.0668945 10.2666 0.0668945H45.7333C51.3066 0.0668945 55.8666 4.62689 55.8666 10.2002V50.7336C55.8666 55.8002 50.8 55.8002 50.8 55.8002V60.8669C50.8 63.6536 48.52 65.9336 45.7333 65.9336C42.9466 65.9336 40.6666 63.6536 40.6666 60.8669V55.8002H15.3333V60.8669C15.3333 63.6536 13.0533 65.9336 10.2666 65.9336C7.47997 65.9336 5.19997 63.6536 5.19997 60.8669V55.8002C0.133301 55.8002 0.133301 50.7336 0.133301 50.7336V10.2002ZM7.7333 15.2669C6.31463 15.2669 5.19997 16.3816 5.19997 17.8002V33.0002C5.19997 34.4189 6.31463 35.5336 7.7333 35.5336H48.2666C49.6853 35.5336 50.8 34.4189 50.8 33.0002V17.8002C50.8 16.3816 49.6853 15.2669 48.2666 15.2669H7.7333ZM10.2666 40.6002C7.47997 40.6002 5.19997 42.8802 5.19997 45.6669C5.19997 48.4536 7.47997 50.7336 10.2666 50.7336C13.0533 50.7336 15.3333 48.4536 15.3333 45.6669C15.3333 42.8802 13.0533 40.6002 10.2666 40.6002ZM45.7333 40.6002C42.9466 40.6002 40.6666 42.8802 40.6666 45.6669C40.6666 48.4536 42.9466 50.7336 45.7333 50.7336C48.52 50.7336 50.8 48.4536 50.8 45.6669C50.8 42.8802 48.52 40.6002 45.7333 40.6002ZM10.2666 7.66689C10.2666 9.08556 11.3813 10.2002 12.8 10.2002H43.2C44.6186 10.2002 45.7333 9.08556 45.7333 7.66689C45.7333 6.24823 44.6186 5.13356 43.2 5.13356H12.8C11.3813 5.13356 10.2666 6.24823 10.2666 7.66689Z" fill="#4B4B4B"/>
</svg>
