<svg width="72" height="72" viewBox="0 0 72 72" fill="none" xmlns="http://www.w3.org/2000/svg">
<path d="M42 12C42 13.5913 41.3679 15.1174 40.2426 16.2426C39.1174 17.3679 37.5913 18 36 18C34.4087 18 32.8826 17.3679 31.7574 16.2426C30.6321 15.1174 30 13.5913 30 12C30 10.4087 30.6321 8.88258 31.7574 7.75736C32.8826 6.63214 34.4087 6 36 6C37.5913 6 39.1174 6.63214 40.2426 7.75736C41.3679 8.88258 42 10.4087 42 12ZM27 28.23C26.6745 28.9995 26.385 30.015 26.154 31.2225C25.545 34.3965 25.5 37.9095 25.5 39C25.5 39.7957 25.1839 40.5587 24.6213 41.1213C24.0587 41.6839 23.2956 42 22.5 42C21.7044 42 20.9413 41.6839 20.3787 41.1213C19.8161 40.5587 19.5 39.7957 19.5 39C19.5 37.8405 19.539 33.8535 20.262 30.09C20.619 28.236 21.186 26.1795 22.1595 24.5145C23.136 22.842 24.8925 21 27.666 21H44.334C47.1075 21 48.864 22.842 49.8405 24.5145C50.814 26.1795 51.381 28.2345 51.738 30.09C52.461 33.8535 52.5 37.8405 52.5 39C52.5 39.7957 52.1839 40.5587 51.6213 41.1213C51.0587 41.6839 50.2956 42 49.5 42C48.7044 42 47.9413 41.6839 47.3787 41.1213C46.8161 40.5587 46.5 39.7957 46.5 39C46.5 37.9095 46.455 34.3965 45.846 31.2225C45.6135 30.015 45.3255 28.9995 45 28.2315V63C44.9993 63.7753 44.6985 64.5202 44.1606 65.0786C43.6227 65.637 42.8896 65.9654 42.1148 65.9951C41.3401 66.0248 40.584 65.7534 40.0049 65.2378C39.4259 64.7222 39.069 64.0025 39.009 63.2295L37.509 43.7295C37.5031 43.6531 37.5001 43.5766 37.5 43.5H34.5C34.5 43.576 34.497 43.6525 34.491 43.7295L32.991 63.2295C32.931 64.0025 32.5741 64.7222 31.9951 65.2378C31.416 65.7534 30.6599 66.0248 29.8852 65.9951C29.1104 65.9654 28.3773 65.637 27.8394 65.0786C27.3015 64.5202 27.0007 63.7753 27 63V28.23Z" fill="#4B4B4B"/>
</svg>
