<svg width="65" height="55" viewBox="0 0 65 55" fill="none" xmlns="http://www.w3.org/2000/svg">
<path d="M60.7176 18.8444L56.3237 6.37905C55.6863 4.56417 54.4603 2.9854 52.8199 1.86707C51.1795 0.748734 49.2081 0.147719 47.1859 0.149418H17.8998C15.8775 0.147719 13.9061 0.748734 12.2657 1.86707C10.6253 2.9854 9.39931 4.56417 8.76192 6.37905L4.36804 18.8444C3.19962 19.3067 2.20181 20.0854 1.50003 21.0824C0.798249 22.0795 0.423827 23.2506 0.423828 24.4483V39.6351C0.423828 41.8767 1.72143 43.8145 3.63573 44.8685V51.7846C3.63573 52.5901 3.97412 53.3627 4.57647 53.9323C5.17882 54.5019 5.99578 54.8219 6.84762 54.8219H10.0595C10.9114 54.8219 11.7283 54.5019 12.3307 53.9323C12.933 53.3627 13.2714 52.5901 13.2714 51.7846V45.7098H51.8142V51.7846C51.8142 52.5901 52.1526 53.3627 52.7549 53.9323C53.3573 54.5019 54.1743 54.8219 55.0261 54.8219H58.238C59.0898 54.8219 59.9068 54.5019 60.5092 53.9323C61.1115 53.3627 61.4499 52.5901 61.4499 51.7846V44.8685C62.4244 44.34 63.2343 43.578 63.7982 42.6593C64.3621 41.7405 64.66 40.6974 64.6618 39.6351V24.4483C64.6618 23.2506 64.2874 22.0795 63.5856 21.0824C62.8838 20.0854 61.886 19.3067 60.7176 18.8444ZM17.8998 6.22414H47.1826C48.567 6.22414 49.7939 7.05638 50.2307 8.3017L53.7831 18.3736H11.3025L14.8517 8.3017C15.0648 7.69664 15.4739 7.17036 16.021 6.79747C16.5681 6.42457 17.2254 6.22399 17.8998 6.22414ZM11.6655 36.5978C11.0326 36.5976 10.4059 36.4795 9.82127 36.2503C9.23663 36.021 8.70545 35.6852 8.25807 35.2618C7.8107 34.8385 7.45587 34.3359 7.21387 33.7829C6.97186 33.2299 6.84741 32.6372 6.84762 32.0387C6.84784 31.4402 6.9727 30.8476 7.2151 30.2947C7.45749 29.7418 7.81267 29.2395 8.26035 28.8164C8.70802 28.3934 9.23943 28.0578 9.82424 27.829C10.409 27.6001 11.0358 27.4824 11.6687 27.4826C12.9469 27.483 14.1726 27.9636 15.0761 28.8186C15.9796 29.6736 16.487 30.833 16.4865 32.0417C16.4861 33.2505 15.9779 34.4095 15.0738 35.264C14.1697 36.1184 12.9437 36.5982 11.6655 36.5978ZM53.4202 36.5978C52.7873 36.5976 52.1606 36.4795 51.5759 36.2503C50.9913 36.021 50.4601 35.6852 50.0128 35.2618C49.5654 34.8385 49.2106 34.3359 48.9685 33.7829C48.7265 33.2299 48.6021 32.6372 48.6023 32.0387C48.6025 31.4402 48.7274 30.8476 48.9698 30.2947C49.2122 29.7418 49.5673 29.2395 50.015 28.8164C50.4627 28.3934 50.9941 28.0578 51.5789 27.829C52.1637 27.6001 52.7905 27.4824 53.4234 27.4826C54.7016 27.483 55.9272 27.9636 56.8308 28.8186C57.7343 29.6736 58.2416 30.833 58.2412 32.0417C58.2408 33.2505 57.7326 34.4095 56.8285 35.264C55.9244 36.1184 54.6983 36.5982 53.4202 36.5978Z" fill="#555555"/>
</svg>
