<svg width="71" height="47" viewBox="0 0 71 47" fill="none" xmlns="http://www.w3.org/2000/svg">
<path d="M56.2083 16.5833C54.5517 16.5833 52.9837 16.9088 51.5046 17.4117L42.7775 0.3125H32.5417V4.75H40.0558L42.6592 9.83833L35.5 25.8429L30.2637 13.4771C31.0625 13.1813 31.7725 12.3825 31.7725 11.4063C31.7725 10.1933 30.7962 9.1875 29.5833 9.1875H23.6667C22.4242 9.1875 21.4183 10.1933 21.4183 11.4063C21.4183 12.6192 22.4242 13.625 23.6667 13.625H25.4712L32.1275 29.1563H29.3467C28.2817 22.0563 22.1875 16.5833 14.7917 16.5833C6.62667 16.5833 0 23.21 0 31.375C0 39.54 6.62667 46.1667 14.7917 46.1667C22.1875 46.1667 28.2817 40.6938 29.3467 33.5938H36.9792L45.2329 14.8971L47.57 19.4233C45.6698 20.7845 44.1207 22.5783 43.0507 24.6564C41.9808 26.7346 41.4207 29.0376 41.4167 31.375C41.4167 39.54 48.0433 46.1667 56.2083 46.1667C64.3733 46.1667 71 39.54 71 31.375C71 23.21 64.3733 16.5833 56.2083 16.5833ZM14.7917 41.7292C9.08208 41.7292 4.4375 37.0846 4.4375 31.375C4.4375 25.6654 9.08208 21.0208 14.7917 21.0208C19.7321 21.0208 23.8737 24.5117 24.8796 29.1563H11.8333V33.5938H24.8796C24.3772 35.8965 23.1031 37.9585 21.2684 39.4381C19.4337 40.9177 17.1486 41.726 14.7917 41.7292ZM56.2083 41.7292C50.4987 41.7292 45.8542 37.0846 45.8542 31.375C45.8542 28.18 47.3333 25.3696 49.6113 23.4763L54.9362 33.8896L58.8412 31.7596L53.5458 21.4054C54.4038 21.1983 55.2912 21.0208 56.2083 21.0208C61.9179 21.0208 66.5625 25.6654 66.5625 31.375C66.5625 37.0846 61.9179 41.7292 56.2083 41.7292Z" fill="#4B4B4B"/>
</svg>
