<svg width="34" height="60" viewBox="0 0 34 60" fill="none" xmlns="http://www.w3.org/2000/svg">
<path d="M23 6C23 7.5913 22.3679 9.11742 21.2426 10.2426C20.1174 11.3679 18.5913 12 17 12C15.4087 12 13.8826 11.3679 12.7574 10.2426C11.6321 9.11742 11 7.5913 11 6C11 4.4087 11.6321 2.88258 12.7574 1.75736C13.8826 0.632141 15.4087 0 17 0C18.5913 0 20.1174 0.632141 21.2426 1.75736C22.3679 2.88258 23 4.4087 23 6ZM8 22.23C7.6745 22.9995 7.385 24.015 7.154 25.2225C6.545 28.3965 6.5 31.9095 6.5 33C6.5 33.7957 6.18393 34.5587 5.62132 35.1213C5.05871 35.6839 4.29565 36 3.5 36C2.70435 36 1.94129 35.6839 1.37868 35.1213C0.816071 34.5587 0.5 33.7957 0.5 33C0.5 31.8405 0.539001 27.8535 1.262 24.09C1.619 22.236 2.186 20.1795 3.1595 18.5145C4.136 16.842 5.8925 15 8.666 15H25.334C28.1075 15 29.864 16.842 30.8405 18.5145C31.814 20.1795 32.381 22.2345 32.738 24.09C33.461 27.8535 33.5 31.8405 33.5 33C33.5 33.7957 33.1839 34.5587 32.6213 35.1213C32.0587 35.6839 31.2956 36 30.5 36C29.7044 36 28.9413 35.6839 28.3787 35.1213C27.8161 34.5587 27.5 33.7957 27.5 33C27.5 31.9095 27.455 28.3965 26.846 25.2225C26.6135 24.015 26.3255 22.9995 26 22.2315V57C25.9993 57.7753 25.6985 58.5202 25.1606 59.0786C24.6227 59.637 23.8896 59.9654 23.1148 59.9951C22.3401 60.0248 21.584 59.7534 21.0049 59.2378C20.4259 58.7222 20.069 58.0025 20.009 57.2295L18.509 37.7295C18.5031 37.6531 18.5001 37.5766 18.5 37.5H15.5C15.5 37.576 15.497 37.6525 15.491 37.7295L13.991 57.2295C13.931 58.0025 13.5741 58.7222 12.9951 59.2378C12.416 59.7534 11.6599 60.0248 10.8852 59.9951C10.1104 59.9654 9.37727 59.637 8.83939 59.0786C8.30151 58.5202 8.00069 57.7753 8 57V22.23Z" fill="#4B4B4B"/>
</svg>
